<?xml version="1.0" standalone="no"?>
<!DOCTYPE svg PUBLIC "-//W3C//DTD SVG 1.1//EN" "http://www.w3.org/Graphics/SVG/1.1/DTD/svg11.dtd" >
<svg xmlns="http://www.w3.org/2000/svg">
<metadata>
This is a custom SVG webfont generated by Font Squirrel.
Copyright   : Created by Artyom ZKoshak Krukovsky with FontForge 20 httpfontforgesfnet
Taken from http://www.uesp.net/wiki/Lore:Dragon_Alphabet
The content is licensed under the Creative Commons by-sa license.
</metadata>
<defs>
<font id="DragonTESMedium" horiz-adv-x="2048" >
<font-face units-per-em="2048" ascent="1638" descent="-410" />
<missing-glyph horiz-adv-x="500" />
<glyph unicode="A" d="M174 -250q0 29 150 146l968 757q10 8 11 31q0 33 -32 129t-32 125q0 18 8 25l271 -357q-418 -381 -1168 -788q-135 -74 -166 -74q-10 0 -10 6zM547 1083l155 166l166 -155l-155 -166zM1456 1483l418 2q-96 -174 -166 -449q-23 -90 -37 -90q-12 0 -16 78v4v2q-8 74 -8 137 q0 82 26 183q2 4 2 10q0 20 -43 40.5t-99.5 42.5t-76.5 40z" />
<glyph unicode="B" d="M229 1325q10 20 181 49q633 101 1106 102q158 0 299 -12l6 -446q-23 0 -48 67l-54 136q-28 68 -54 67l-281 4q-137 2 -175 3t-86 1h-84h-95h-194h-314q-208 0 -208 25q0 2 1 4zM381 -96l971 753q12 16 11 40q0 22 -9 51q-20 59 -41 132q-11 38 -11 60q0 20 9 27l266 -359 q-418 -377 -1171 -782q-135 -73 -166 -73q-9 0 -10 6q0 18 35.5 50.5t115.5 94.5zM1458 82l156 166l166 -156l-156 -164z" />
<glyph unicode="D" d="M174 1413h451q16 -166 15 -358q0 -457 -89 -1059q-27 -183 -49 -183q-1 0 -2 1q-25 10 -27 209q-4 203 -5 361.5t-1 185t-2 106.5t-2 91t-5 174t-9 321q0 27 -69 53l-137 51q-69 24 -69 47zM961 1245l157 166l166 -156l-158 -165zM1452 1413l422 2q-98 -213 -168 -549 q-23 -109 -36 -108q-10 0 -15 67q0 8 -2 23v12q-9 92 -9 166q0 15 1 29q2 84 26 196q3 7 3 13q0 22 -32 42q-41 26 -104 54t-86 53z" />
<glyph unicode="E" d="M229 1325q10 20 181 49q633 101 1106 102q158 0 299 -12l6 -446q-23 0 -48 67l-54 136q-28 68 -54 67l-281 4q-137 2 -175 3t-86 1h-84h-95h-194h-314q-208 0 -208 25q0 2 1 4zM381 -96l971 753q12 16 11 40q0 22 -9 51q-20 59 -41 132q-11 38 -11 60q0 20 9 27l266 -359 q-418 -377 -1171 -782q-135 -73 -166 -73q-9 0 -10 6q0 18 35.5 50.5t115.5 94.5zM399 647l156 166l166 -156l-156 -165z" />
<glyph unicode="F" d="M291 668l418 -6q-100 -270 -172 -699q-23 -139 -37 -139q-6 0 -11 33q-2 20 -6 98q-7 102 -7 186q0 34 1 65q4 108 29 249q4 10 4 19q0 27 -31 52q-41 35 -104.5 73t-83.5 69zM920 1108l358 2q-86 -137 -143 -352q-19 -70 -31 -70q-10 0 -14 47v10q0 6 -3 9q-7 57 -6 103 v22q2 53 23 125q12 18 -24 35.5t-90 36t-70 32.5zM1294 1409h447q16 -168 16 -361q0 -453 -88 -1046q-26 -182 -49 -182q-2 0 -4 2q-23 18 -25 207q-2 176 -4 312t-2 196v95q0 36 -2 84t-3 85t-5 175l-8 281q0 27 -68 53l-136 50q-69 24 -69 49z" />
<glyph unicode="G" d="M221 76l156 164l164 -154l-156 -166zM633 -127l956 772q12 8 12 31q0 21 -11 55l-44 138q-12 38 -12 59q0 17 8 24l275 -352q-412 -385 -1158 -805q-136 -76 -166 -76q-9 0 -8 6q0 18 35.5 52t112.5 96zM831 1509l418 -6q-100 -270 -174 -698q-24 -141 -37 -141 q-6 0 -10 32q-2 20 -6 101q-6 104 -6 189q0 32 1 61q3 106 30 249q3 9 2 17q0 28 -31 55q-41 35 -104 72.5t-83 68.5z" />
<glyph unicode="H" d="M328 1044l155 166l166 -155l-155 -164zM784 -47q20 29 84 67.5t104 73.5q31 27 30 53q0 8 -3 17q-25 143 -28 250q-1 30 -1 64q0 84 7 186q6 133 15 133q14 0 38 -142q72 -428 172 -698zM1247 1409h447q16 -168 16 -361q0 -453 -88 -1046q-28 -182 -49 -182q-2 0 -4 2 q-23 18 -25 207q-2 176 -4 312t-3 195.5t-1 95.5t-1 84t-2 85t-5 175l-8 281q0 27 -69 53l-136 50q-68 24 -68 49z" />
<glyph unicode="I" d="M268 958l359 3q-49 -55 -78 -102.5t-66 -129.5q-10 -25 -19 -34t-13.5 -7t-8.5 11.5t-5 14.5t-3 11v2q-13 66 -13 108q0 10 1 19q2 12 -35 29l-76 35q-39 17 -43 40zM637 1409h448q15 -163 15 -350q0 -457 -88 -1057q-26 -182 -49 -182q-2 0 -5 2q-20 18 -24 207 q-2 176 -3 312t-2 195.5t-1 95.5t-2 84t-2 85t-4 175l-9 281q-2 27 -69 53l-135 50q-68 24 -70 49zM1421 1397l359 2q-84 -137 -144 -352q-19 -70 -30 -70q-9 0 -13 47q0 4 -2 10v8q-7 57 -6 103v22q2 53 23 125q10 18 -25 36t-89.5 35.5t-72.5 33.5z" />
<glyph unicode="J" d="M418 1210l188 185q252 -215 547 -625q55 -77 55 -92q0 -4 -3 -5q-1 0 -3 1q-20 4 -92 76l-516 510q-3 3 -10 3q-21 0 -78 -27q-59 -28 -80 -28q-5 0 -8 2zM422 680l420 -6q-100 -270 -174 -699q-24 -141 -37 -141q-6 0 -10 33q-2 20 -7 100q-6 104 -6 189q0 32 1 61 q3 106 30 250q3 9 3 17q0 28 -32 55q-41 35 -103 72.5t-85 68.5zM1212 141q20 31 83 69t104 73q32 27 31 54q0 8 -3 17q-27 141 -29 249q-1 29 -1 61q0 85 6 190q6 131 17 131q12 0 36 -141q74 -426 174 -697z" />
<glyph unicode="K" d="M408 864q633 101 1106 102q158 0 298 -12l7 -446q-23 0 -49 67l-52 136q-27 68 -53 67q-145 2 -282.5 5t-174.5 3t-85 1q-24 1 -45 1t-39 -1q-36 -1 -96 -1h-195h-314q-208 0 -208 26q1 24 182 52zM410 1397q630 102 1101 102q162 0 306 -12l4 -447q-23 0 -48 68l-53 135 q-27 68 -53 70l-282 4q-138 2 -174.5 2t-85 1t-84 1t-96 -1t-195.5 -1h-312q-210 0 -209 25q0 24 181 53zM897 524l418 2q-98 -174 -168 -448q-22 -88 -36 -88q-11 0 -15 61v12q-2 6 -2 9q-8 71 -8 128v32q3 69 28 159q12 25 -30 46.5t-104.5 44t-82.5 42.5z" />
<glyph unicode="L" d="M174 45l156 164l164 -156l-156 -164zM215 360q12 35 154 136l993 725q11 8 11 34q0 21 -7 55q-16 75 -37 134q-10 30 -10 51.5t10 34.5l256 -367q-428 -365 -1194 -747q-136 -68 -168 -68q-10 0 -10 6q0 2 2 6zM492 -289q14 33 153 133l995 725q11 8 12 33q0 22 -8 56 q-17 75 -37 135q-9 29 -10 50q0 22 11 36l256 -367q-430 -365 -1194 -745q-135 -68 -169 -69q-11 0 -11 7z" />
<glyph unicode="M" d="M311 1409h447q16 -168 16 -361q0 -453 -88 -1046q-28 -182 -49 -182q-2 0 -4 2q-23 18 -25 207q-4 176 -5 312t-2 195.5t-1 95.5t-1 84t-2 85t-5 175l-8 281q0 27 -69 53l-136 50q-68 24 -68 49zM893 174q23 29 85 68t103 72q32 26 32 54q0 8 -3 17q-27 143 -30 250 q-1 29 -1 61q0 85 6 189q6 133 17 133q12 0 37 -141q74 -428 174 -699zM1319 -39q20 31 83.5 69t103.5 72q31 27 31 54q0 8 -3 16q-25 143 -29 251q-1 31 -1 64q0 84 7 185q6 133 15 133q14 0 39 -141q72 -426 172 -697z" />
<glyph unicode="N" d="M408 90q635 103 1110 103q156 0 294 -11l7 -448q-23 0 -49 67l-52 136q-27 68 -53 69l-283 4q-137 2 -174 2t-85 1t-84 1h-96q-60 0 -195.5 -1t-313.5 -1q-208 0 -208 26q1 24 182 52zM410 623q637 103 1112 103q156 0 295 -11l4 -447q-23 0 -48 68l-53 135 q-27 68 -53 68l-282 4q-138 2 -174.5 3t-85.5 1h-84h-96h-195h-312q-210 0 -209.5 23.5t181.5 52.5zM872 1339l156 166l164 -155l-156 -166z" />
<glyph unicode="O" d="M186 -227q14 35 154 135l999 717q11 9 12 36q0 22 -8 55q-16 75 -35 134q-10 30 -10 52q0 21 9 34l256 -367q-432 -362 -1201 -741q-136 -68 -168 -68q-10 0 -9 7q-1 2 1 6zM879 1462h358q-51 -53 -80 -100t-63 -129q-10 -25 -19.5 -34t-14.5 -7t-9 11t-5.5 14.5 t-1.5 11.5v2q-13 66 -13 107q0 10 1 20q2 12 -35 28l-76 35q-40 18 -42 41zM1505 1464l359 2q-84 -135 -144 -350q-19 -70 -31 -70q-9 0 -14 46v12v6q-9 60 -8 107v19q2 54 25 126q10 18 -26 34.5t-90.5 35t-70.5 32.5z" />
<glyph unicode="P" d="M879 1462h358q-51 -53 -80 -100t-63 -129q-10 -25 -19.5 -34t-14.5 -7t-9 11t-5.5 14.5t-1.5 11.5v2q-13 66 -13 107q0 10 1 20q2 12 -35 28l-76 35q-40 18 -42 41zM918 578l155 165l164 -155l-156 -166zM1505 1464l359 2q-84 -135 -144 -350q-19 -70 -31 -70 q-9 0 -14 46v12v6q-9 60 -8 107v19q2 54 25 126q10 18 -26 34.5t-90.5 35t-70.5 32.5z" />
<glyph unicode="R" d="M225 1413h451q14 -162 14 -350q0 -465 -88 -1069q-27 -182 -49 -182q-27 0 -29 211q-8 702 -24 1239q-2 33 -138.5 78.5t-136.5 72.5zM901 881l359 2q-51 -53 -80 -101.5t-64 -128.5q-20 -45 -32 -45q-10 0 -15 31q-2 8 -2 10q-14 68 -14 92q0 16 2 35q0 16 -75 47 t-79 58zM1405 1417l418 -6q-100 -266 -172 -698q-24 -139 -38 -140q-12 0 -16 105v18v9q-6 145 -6 204q0 129 29 295q2 8 2 17q0 33 -42 64.5t-98.5 67t-76.5 64.5z" />
<glyph unicode="S" d="M256 729l418 -6q-100 -270 -174 -698q-23 -139 -37 -140q-6 0 -10 33q-2 20 -7 98q-6 104 -5 190v61q3 108 30 249q3 9 3 17q0 28 -32 55q-41 35 -103.5 72.5t-82.5 68.5zM584 1409h446q16 -168 16 -361q0 -453 -88 -1046q-28 -182 -49 -182q-2 0 -4 2q-23 18 -24 207 q-2 176 -4.5 312t-3.5 195.5t-1 95.5t-1 84t-2 85t-5 175l-8 281q0 27 -69 53l-136 50q-67 24 -67 49zM1374 1409l418 -6q-100 -270 -172 -698q-25 -140 -38 -141q-6 0 -9 32q-4 20 -6 100q-7 102 -8 186q0 33 2 64q4 106 28 250q3 9 3 17q0 28 -30 55q-40 35 -104 72.5 t-84 68.5z" />
<glyph unicode="T" d="M231 80q12 23 181 47q593 88 1046 88q193 0 361 -16v-447q-25 0 -50 68l-50 136q-26 69 -52 69l-282 8l-175 5q-37 1 -85 2t-83.5 1t-95 1t-196 3t-312.5 4q-208 2 -208 27q0 2 1 4zM731 1298l420 -6q-100 -270 -174 -698q-23 -139 -37 -139q-6 0 -10 32q-2 20 -6 99 q-6 104 -6 189q0 32 1 61q3 106 29 249q3 9 3 17q0 28 -31 55q-41 35 -103.5 72.5t-85.5 68.5zM1300 1477l418 -7q-100 -270 -174 -696q-24 -141 -37 -141q-6 0 -10 33q-2 20 -6 100q-6 104 -6 189q0 32 1 61q3 106 30 250q3 8 2 16q0 27 -31 53q-41 35 -104 73t-83 69z" />
<glyph unicode="U" d="M233 559q23 31 85.5 69t103.5 72q32 27 31 55q0 8 -2 17q-27 141 -30 249q-1 29 -1 61q0 85 6 190q6 131 17 131q12 0 36 -141q74 -426 174 -697zM885 1405l420 -4q-102 -270 -175 -699q-24 -141 -36 -141q-6 0 -11 33q-2 20 -6 100q-6 104 -6 189q0 32 1 61 q3 106 30 250q3 9 3 17q0 28 -32 54q-41 34 -104.5 72.5t-83.5 67.5zM1352 1409h446q16 -168 16 -361q0 -453 -88 -1046q-28 -182 -49 -182q-2 0 -4 2q-23 18 -24 207q-2 176 -4.5 312t-3.5 195.5t-1 95.5t-1 84t-2 85t-5 175l-8 281q0 27 -69 53l-136 50q-67 24 -67 49z " />
<glyph unicode="V" d="M168 1194l190 182q250 -217 541 -628q54 -75 54 -92q0 -5 -4 -5h-3q-20 4 -90 78l-510 512q-4 4 -13 4q-23 0 -78 -25q-60 -28 -79 -28q-6 0 -8 2zM682 268l973 752q12 16 12 40q0 22 -10 50q-20 59 -41 132q-11 38 -11 60q0 20 9 27l266 -358q-418 -377 -1173 -781 q-135 -73 -166 -73q-9 0 -10 7q0 18 36 51t115 93zM1491 123l358 2q-51 -55 -79.5 -102.5t-63.5 -128.5q-10 -25 -19 -34q-8 -8 -13 -8q-1 0 -2 1q-5 2 -9 11t-5 15t-1 10v2q-13 66 -13 108q0 10 1 19q2 12 -35 29l-77 36q-40 20 -42 40z" />
<glyph unicode="W" d="M231 172q12 23 181 47q593 88 1046 88q193 0 361 -16v-447q-25 0 -50 68l-50 136q-26 69 -52 69l-282 8l-175 5q-37 1 -85 2t-83.5 1t-95 1t-196 3t-312.5 4q-208 2 -208 27q0 2 1 4zM610 1067l195 178q246 -221 530 -637q52 -78 53 -94q0 -5 -4 -5q-1 0 -4 1 q-20 6 -90 80l-502 520q-4 4 -13 4q-22 0 -76 -23q-59 -26 -79 -26q-7 0 -10 2zM1415 1384h359q-49 -53 -78 -100t-66 -129q-10 -25 -19 -34q-8 -8 -12.5 -8t-9.5 11q-4 10 -5 15.5t-3 11.5q-13 67 -13 108q0 10 1 19q2 14 -35 29.5t-76 34.5t-43 42z" />
<glyph unicode="Z" d="M209 1409l420 -6q-100 -270 -174 -698q-23 -139 -37 -140q-6 0 -10 33q-2 20 -7 98q-6 104 -6 190q0 32 1 61q3 108 30 249q3 9 3 17q0 28 -32 55q-41 35 -103 72.5t-85 68.5zM772 1405l447 2q16 -168 15 -361q0 -454 -87 -1048q-26 -180 -49 -180q-2 0 -4 2 q-23 18 -25 205q-2 178 -4 313t-2 195.5t-1 96.5t-2 84t-2 85t-5 174l-9 282q0 27 -67 53l-136 50q-69 24 -69 47zM1419 1411l420 -6q-102 -270 -174 -696q-24 -141 -37 -142q-6 0 -10 33q-2 20 -6 100q-6 104 -6 189q0 32 1 61q3 106 29 250q3 8 3 16q0 27 -31 54 q-41 35 -105 72.5t-84 68.5z" />
<glyph unicode="a" d="M403 356l963 766q10 15 10 37q0 23 -11 53q-22 59 -43 133q-12 39 -12 61q0 19 9 26l272 -355q-414 -383 -1161 -798q-136 -76 -166 -77q-9 0 -9 7q0 18 35.5 51.5t112.5 95.5zM256 1120l156 166l163 -156l-155 -165zM1374 -203q20 31 84 69t105 72q33 27 32 56 q0 7 -2 14q-25 143 -26 250q0 18 -1 37q0 94 9 213q6 131 17 131q14 0 36 -141q68 -428 164 -699z" />
<glyph unicode="b" d="M180 1475l584 -5q-150 -365 -252 -946q-35 -190 -55 -190q-18 0 -27 176q-14 223 -14 303q0 162 41 371q4 14 4 26q0 43 -51.5 87t-125 92.5t-104.5 85.5zM772 889l584 2q-90 -225 -142.5 -440t-101.5 -510q-33 -190 -53 -191q-14 0 -29 176q-16 229 -16 316 q0 156 37 360q4 12 4 27q0 43 -51.5 86t-126 91t-105.5 83zM1284 1479h584q-90 -223 -142.5 -437.5t-103.5 -511.5q-33 -193 -53 -192q-16 0 -29 178q-14 227 -14 309q0 158 37 365q4 12 4 27q0 43 -51.5 86t-126 91t-105.5 85z" />
<glyph unicode="e" d="M498 -10l983 737q12 16 12 42q0 22 -9 49q-19 60 -39 133q-10 37 -10 60q0 21 9 27l260 -362q-424 -371 -1184 -764q-134 -69 -167 -69q-10 0 -10 7q0 18 37 49.5t118 90.5zM344 1202l186 184q254 -215 549 -622q54 -77 54 -94q0 -5 -4 -5q-1 0 -3 1q-20 4 -92 77 l-514 508q-4 3 -11 3q-22 0 -79 -26q-59 -28 -78 -28q-6 0 -8 2zM1395 45l155 164l164 -156l-153 -164z" />
<glyph unicode="f" d="M244 514q20 33 83.5 75t105.5 80q32 29 33 60q0 9 -3 19q-23 162 -23 282.5t13 284.5q8 147 18 147q12 0 33 -159q63 -483 158 -793zM391 -104l944 784q10 9 10 30q0 22 -11 58l-45 137q-13 38 -13 60q0 17 8 24l279 -350q-406 -391 -1145 -821q-133 -78 -164 -78 q-9 0 -9 6q0 30 146 150zM1495 1333l156 166l164 -156l-156 -163z" />
<glyph unicode="i" d="M211 1104l188 184q252 -215 547 -622q55 -77 55 -94q0 -5 -4 -5h-2q-20 4 -92 78l-516 508q-3 4 -12 4q-22 0 -77 -27q-60 -29 -79 -28q-6 0 -8 2zM436 330l156 164l164 -156l-156 -164zM477 -233q12 33 152 137l985 737q11 15 10 38q0 22 -9 51q-19 60 -39 133 q-10 37 -10 60q0 21 9 27l262 -362q-424 -371 -1184 -764q-136 -69 -167 -70q-10 0 -10 7q0 3 1 6zM950 1473l418 -5q-100 -270 -174 -698q-24 -141 -37 -141q-6 0 -10 33q-2 20 -4 100q-8 110 -8 199q0 27 1 51q3 106 29 250q3 8 3 16q0 27 -31 53q-41 35 -104 73t-83 69z " />
<glyph unicode="&#xaa;" d="M403 356l963 766q10 15 10 37q0 23 -11 53q-22 59 -43 133q-12 39 -12 61q0 19 9 26l272 -355q-414 -383 -1161 -798q-136 -76 -166 -77q-9 0 -9 7q0 18 35.5 51.5t112.5 95.5zM256 1120l156 166l163 -156l-155 -165zM1374 -203q20 31 84 69t105 72q33 27 32 56 q0 7 -2 14q-25 143 -26 250q0 18 -1 37q0 94 9 213q6 131 17 131q14 0 36 -141q68 -428 164 -699z" />
<glyph unicode="&#x152;" horiz-adv-x="4096" d="M2277 1325q10 20 181 49q633 101 1106 102q158 0 299 -12l6 -446q-23 0 -48 67l-54 136q-28 68 -54 67l-281 4q-137 2 -175 3t-86 1h-84h-95h-194h-314q-208 0 -208 25q0 2 1 4zM2429 -96l971 753q12 16 11 40q0 22 -9 51q-20 59 -41 132q-11 38 -11 60q0 20 9 27 l266 -359q-418 -377 -1171 -782q-135 -73 -166 -73q-9 0 -10 6q0 18 35.5 50.5t115.5 94.5zM2447 647l156 166l166 -156l-156 -165zM186 -227q14 35 154 135l999 717q11 9 12 36q0 22 -8 55q-16 75 -35 134q-10 30 -10 52q0 21 9 34l256 -367q-432 -362 -1201 -741 q-136 -68 -168 -68q-10 0 -9 7q-1 2 1 6zM879 1462h358q-51 -53 -80 -100t-63 -129q-10 -25 -19.5 -34t-14.5 -7t-9 11t-5.5 14.5t-1.5 11.5v2q-13 66 -13 107q0 10 1 20q2 12 -35 28l-76 35q-40 18 -42 41zM1505 1464l359 2q-84 -135 -144 -350q-19 -70 -31 -70 q-9 0 -14 46v12v6q-9 60 -8 107v19q2 54 25 126q10 18 -26 34.5t-90.5 35t-70.5 32.5z" />
<glyph unicode="&#x2013;" horiz-adv-x="1024" d="M205 512v205h614v-205h-614z" />
<glyph unicode="&#x2014;" d="M205 512v205h1638v-205h-1638z" />
<glyph unicode="&#x2122;" horiz-adv-x="4096" d="M2359 1409h447q16 -168 16 -361q0 -453 -88 -1046q-28 -182 -49 -182q-2 0 -4 2q-23 18 -25 207q-4 176 -5 312t-2 195.5t-1 95.5t-1 84t-2 85t-5 175l-8 281q0 27 -69 53l-136 50q-68 24 -68 49zM2941 174q23 29 85 68t103 72q32 26 32 54q0 8 -3 17q-27 143 -30 250 q-1 29 -1 61q0 85 6 189q6 133 17 133q12 0 37 -141q74 -428 174 -699zM3367 -39q20 31 83.5 69t103.5 72q31 27 31 54q0 8 -3 16q-25 143 -29 251q-1 31 -1 64q0 84 7 185q6 133 15 133q14 0 39 -141q72 -426 172 -697zM231 80q12 23 181 47q593 88 1046 88q193 0 361 -16 v-447q-25 0 -50 68l-50 136q-26 69 -52 69l-282 8l-175 5q-37 1 -85 2t-83.5 1t-95 1t-196 3t-312.5 4q-208 2 -208 27q0 2 1 4zM731 1298l420 -6q-100 -270 -174 -698q-23 -139 -37 -139q-6 0 -10 32q-2 20 -6 99q-6 104 -6 189q0 32 1 61q3 106 29 249q3 9 3 17 q0 28 -31 55q-41 35 -103.5 72.5t-85.5 68.5zM1300 1477l418 -7q-100 -270 -174 -696q-24 -141 -37 -141q-6 0 -10 33q-2 20 -6 100q-6 104 -6 189q0 32 1 61q3 106 30 250q3 8 2 16q0 27 -31 53q-41 35 -104 73t-83 69z" />
<glyph unicode="&#xe000;" horiz-adv-x="500" d="M0 0v0v0v0v0z" />
<glyph unicode="&#xfb01;" horiz-adv-x="4096" d="M2259 1104l188 184q252 -215 547 -622q55 -77 55 -94q0 -5 -4 -5h-2q-20 4 -92 78l-516 508q-3 4 -12 4q-22 0 -77 -27q-60 -29 -79 -28q-6 0 -8 2zM2484 330l156 164l164 -156l-156 -164zM2525 -233q12 33 152 137l985 737q11 15 10 38q0 22 -9 51q-19 60 -39 133 q-10 37 -10 60q0 21 9 27l262 -362q-424 -371 -1184 -764q-136 -69 -167 -70q-10 0 -10 7q0 3 1 6zM2998 1473l418 -5q-100 -270 -174 -698q-24 -141 -37 -141q-6 0 -10 33q-2 20 -4 100q-8 110 -8 199q0 27 1 51q3 106 29 250q3 8 3 16q0 27 -31 53q-41 35 -104 73t-83 69z M244 514q20 33 83.5 75t105.5 80q32 29 33 60q0 9 -3 19q-23 162 -23 282.5t13 284.5q8 147 18 147q12 0 33 -159q63 -483 158 -793zM391 -104l944 784q10 9 10 30q0 22 -11 58l-45 137q-13 38 -13 60q0 17 8 24l279 -350q-406 -391 -1145 -821q-133 -78 -164 -78q-9 0 -9 6 q0 30 146 150zM1495 1333l156 166l164 -156l-156 -163z" />
<glyph unicode="&#xfb03;" horiz-adv-x="6144" d="M4307 1104l188 184q252 -215 547 -622q55 -77 55 -94q0 -5 -4 -5h-2q-20 4 -92 78l-516 508q-3 4 -12 4q-22 0 -77 -27q-60 -29 -79 -28q-6 0 -8 2zM4532 330l156 164l164 -156l-156 -164zM4573 -233q12 33 152 137l985 737q11 15 10 38q0 22 -9 51q-19 60 -39 133 q-10 37 -10 60q0 21 9 27l262 -362q-424 -371 -1184 -764q-136 -69 -167 -70q-10 0 -10 7q0 3 1 6zM5046 1473l418 -5q-100 -270 -174 -698q-24 -141 -37 -141q-6 0 -10 33q-2 20 -4 100q-8 110 -8 199q0 27 1 51q3 106 29 250q3 8 3 16q0 27 -31 53q-41 35 -104 73t-83 69z M2292 514q20 33 83.5 75t105.5 80q32 29 33 60q0 9 -3 19q-23 162 -23 282.5t13 284.5q8 147 18 147q12 0 33 -159q63 -483 158 -793zM2439 -104l944 784q10 9 10 30q0 22 -11 58l-45 137q-13 38 -13 60q0 17 8 24l279 -350q-406 -391 -1145 -821q-133 -78 -164 -78 q-9 0 -9 6q0 30 146 150zM3543 1333l156 166l164 -156l-156 -163zM244 514q20 33 83.5 75t105.5 80q32 29 33 60q0 9 -3 19q-23 162 -23 282.5t13 284.5q8 147 18 147q12 0 33 -159q63 -483 158 -793zM391 -104l944 784q10 9 10 30q0 22 -11 58l-45 137q-13 38 -13 60 q0 17 8 24l279 -350q-406 -391 -1145 -821q-133 -78 -164 -78q-9 0 -9 6q0 30 146 150zM1495 1333l156 166l164 -156l-156 -163z" />
</font>
</defs>
</svg>
